<?xml version="1.0" standalone="no"?><!DOCTYPE svg PUBLIC "-//W3C//DTD SVG 1.1//EN" "http://www.w3.org/Graphics/SVG/1.1/DTD/svg11.dtd"><svg t="1502032167700" class="icon" style="" viewBox="0 0 1024 1024" version="1.1" xmlns="http://www.w3.org/2000/svg" p-id="1353" xmlns:xlink="http://www.w3.org/1999/xlink" width="16" height="16"><defs><style type="text/css"></style></defs><path d="M1021.530802 511.806257A510.760238 510.760238 0 1 1 150.346976 151.296099 228.855214 228.855214 0 0 1 173.14939 130.900317a54.357009 54.357009 0 0 1 25.97086-8.656953c39.821985 0 58.053528 15.91148 51.941719 51.941719a74.934587 74.934587 0 0 1-21.417302 35.03469 413.473398 413.473398 0 1 0 562.251795 0A137.645556 137.645556 0 0 1 770.47916 182.842036c-20.084131-29.580809 6.302262-75.419376 43.284766-69.255625a68.017681 68.017681 0 0 1 29.753948 12.119734 316.082675 316.082675 0 0 1 27.70225 25.555326A507.816874 507.816874 0 0 1 1021.530802 511.806257z m-506.431761 25.97086a48.184601 48.184601 0 0 1-47.561301-48.790588V49.836608a47.613243 47.613243 0 1 1 95.122602 0v439.12395A48.184601 48.184601 0 0 1 515.099041 537.777117z" p-id="1354" fill="#ffffff"></path></svg>